<?xml version="1.0" standalone="no"?>
<!DOCTYPE svg PUBLIC "-//W3C//DTD SVG 20010904//EN"
 "http://www.w3.org/TR/2001/REC-SVG-20010904/DTD/svg10.dtd">
<svg version="1.0" xmlns="http://www.w3.org/2000/svg"
 width="700.000000pt" height="700.000000pt" viewBox="0 0 700.000000 700.000000"
 preserveAspectRatio="xMidYMid meet">
<metadata>
Created by potrace 1.14, written by Peter Selinger 2001-2017
</metadata>
<g transform="translate(0.000000,700.000000) scale(0.100000,-0.100000)"
fill="#000000" stroke="none">
<path d="M3299 6996 c-2 -2 -47 -6 -99 -10 -52 -3 -106 -8 -120 -10 -14 -2
-46 -7 -71 -10 -48 -7 -68 -10 -159 -26 -76 -14 -81 -15 -204 -45 -126 -30
-384 -114 -463 -150 -29 -14 -56 -25 -60 -25 -13 0 -278 -133 -371 -187 -465
-267 -908 -688 -1185 -1124 l-36 -57 735 1 c456 0 737 3 740 9 4 6 30 78 59
161 206 591 470 1000 805 1253 123 93 305 179 423 200 20 3 37 10 37 15 0 9
-23 13 -31 5z"/>
<path d="M3348 6993 c7 -3 16 -2 19 1 4 3 -2 6 -13 5 -11 0 -14 -3 -6 -6z"/>
<path d="M3670 6988 c243 -67 373 -133 535 -272 310 -267 556 -675 748 -1242
l41 -121 733 -1 c466 0 733 4 733 10 0 15 -132 204 -215 308 -143 180 -316
359 -465 484 -47 39 -87 73 -90 77 -9 10 -164 125 -230 170 -161 111 -567 329
-612 329 -8 0 -18 4 -23 9 -17 16 -253 97 -390 134 -122 34 -277 68 -370 81
-23 4 -51 8 -62 10 -12 3 -48 7 -80 11 -32 3 -80 8 -108 11 -27 2 -79 6 -115
8 -56 3 -60 2 -30 -6z"/>
<path d="M3227 6516 c-257 -133 -507 -461 -689 -901 -40 -95 -98 -250 -98
-259 0 -7 850 -4 851 2 2 11 4 1192 2 1192 -1 0 -31 -15 -66 -34z"/>
<path d="M3708 6528 c-2 -13 -3 -282 -3 -598 l0 -575 428 -1 c235 -1 427 0
427 2 0 7 -70 194 -94 253 -191 452 -426 762 -688 905 -65 36 -66 36 -70 14z"/>
<path d="M325 4942 c-16 -2 -32 -32 -72 -135 -87 -220 -144 -411 -183 -612
-38 -198 -45 -246 -56 -400 l-6 -90 863 1 c475 1 869 2 874 3 6 0 11 34 11 74
3 178 44 617 70 752 2 11 7 40 10 65 3 25 7 52 9 60 3 8 7 33 11 55 3 22 9 58
14 80 15 68 23 109 24 129 1 18 -20 19 -774 20 -426 1 -784 0 -795 -2z"/>
<path d="M2337 4942 c-9 -2 -20 -16 -23 -30 -3 -15 -10 -43 -15 -62 -4 -19
-11 -51 -14 -70 -3 -19 -10 -53 -15 -75 -5 -22 -12 -60 -15 -85 -4 -24 -8 -47
-10 -50 -1 -3 -6 -27 -9 -55 -4 -27 -11 -81 -16 -120 -13 -102 -19 -148 -25
-218 -4 -34 -8 -75 -10 -92 -2 -16 -7 -86 -10 -155 -4 -69 -8 -146 -10 -172
-2 -27 0 -49 3 -49 17 -3 1108 -5 1117 -2 12 4 14 1217 3 1229 -7 7 -916 13
-951 6z"/>
<path d="M3717 4938 c-9 -5 -12 -154 -11 -610 1 -331 2 -608 3 -613 1 -7 187
-10 559 -9 306 1 560 2 564 3 3 0 5 22 3 49 -2 26 -6 103 -10 172 -4 69 -8
136 -10 150 -1 14 -6 57 -9 95 -3 39 -8 81 -11 95 -2 14 -6 49 -9 78 -3 29 -8
63 -11 75 -2 12 -7 42 -10 67 -11 94 -74 420 -85 439 -6 12 -83 14 -480 15
-259 1 -477 -2 -483 -6z"/>
<path d="M5122 4942 c-16 -3 -21 -8 -18 -20 6 -20 61 -325 71 -392 12 -82 14
-95 20 -149 4 -30 8 -61 10 -70 1 -9 6 -54 10 -101 3 -47 8 -96 10 -110 3 -24
14 -194 20 -323 1 -32 6 -61 9 -65 4 -4 397 -7 873 -7 l865 0 -6 95 c-7 95 -8
107 -20 190 -9 68 -24 155 -32 185 -1 6 -5 26 -9 45 -15 84 -67 275 -105 390
-45 135 -115 309 -130 324 -9 9 -1511 16 -1568 8z"/>
<path d="M2 1720 l3 -1575 23 -40 c26 -45 72 -81 123 -95 22 -6 1234 -10 3359
-10 3204 0 3326 1 3365 19 53 24 90 63 110 114 14 38 15 204 13 1602 l-3 1560
-3498 0 -3497 0 2 -1575z m1908 692 c40 -25 69 -62 80 -102 6 -22 11 -294 12
-672 l3 -636 -30 -43 c-55 -77 -149 -103 -231 -63 -55 27 -84 66 -513 696 -40
60 -75 107 -77 105 -2 -2 -4 -160 -4 -351 -1 -392 -2 -396 -76 -453 -79 -59
-207 -26 -250 66 -18 38 -19 71 -18 688 1 725 -2 694 72 751 29 22 45 27 98
27 75 0 99 -15 164 -102 45 -61 408 -587 465 -673 34 -51 55 -75 56 -63 0 4 0
134 -1 288 -3 413 -3 410 10 449 12 39 68 93 103 100 67 15 97 12 137 -12z
m1104 3 c57 -27 91 -85 91 -155 -1 -65 -16 -95 -71 -137 l-37 -28 -204 -3
-203 -3 0 -135 0 -134 73 0 c256 -2 291 -5 330 -30 44 -29 77 -91 77 -144 0
-72 -56 -145 -126 -162 -16 -4 -101 -8 -189 -8 l-160 -1 -3 -136 -3 -136 175
1 c209 1 243 -4 289 -47 69 -66 74 -167 11 -237 -19 -21 -49 -43 -66 -49 -20
-7 -137 -10 -333 -8 l-303 2 -39 31 c-78 62 -74 18 -71 764 l3 665 24 33 c33
42 63 62 112 70 23 4 163 7 313 6 240 -1 276 -3 310 -19z m554 -11 c39 -25 50
-39 63 -71 8 -22 137 -648 140 -680 0 -9 40 113 129 402 103 332 99 324 164
357 105 53 210 2 249 -123 10 -30 57 -184 106 -343 48 -159 91 -285 93 -280 5
8 11 33 23 94 3 14 7 36 10 50 3 14 7 36 10 50 57 305 96 472 117 500 72 99
228 88 285 -20 13 -24 23 -56 23 -72 0 -16 -22 -140 -50 -276 -27 -136 -52
-262 -55 -281 -3 -19 -7 -37 -9 -40 -2 -3 -7 -23 -10 -44 -3 -21 -33 -174 -66
-340 -53 -263 -64 -307 -89 -342 -73 -101 -208 -111 -297 -21 -34 34 -46 57
-68 131 -15 50 -47 153 -71 230 -24 77 -60 195 -81 262 -21 68 -40 120 -43
117 -6 -6 -13 -28 -127 -399 -47 -154 -96 -296 -109 -316 -26 -40 -111 -89
-154 -89 -115 0 -192 79 -216 220 -3 19 -26 136 -51 260 -24 124 -47 236 -49
250 -3 14 -25 129 -51 255 -25 127 -47 241 -50 255 -2 14 -7 36 -10 50 -21 90
-23 132 -7 170 43 106 159 144 251 84z m2278 1 c119 -34 269 -124 304 -180 60
-97 3 -230 -108 -254 -53 -11 -88 -2 -151 38 -76 49 -138 72 -210 78 -114 9
-191 -32 -191 -101 0 -47 8 -51 247 -147 219 -88 303 -137 367 -213 77 -93
106 -161 111 -262 10 -227 -162 -432 -410 -488 -130 -29 -305 -8 -448 53 -98
42 -229 147 -262 211 -66 127 60 277 201 239 17 -5 57 -32 90 -61 93 -82 189
-117 302 -112 95 4 185 68 185 131 0 66 -46 98 -261 184 -248 98 -296 122
-346 174 -156 158 -160 400 -10 574 71 82 202 147 318 158 34 3 62 6 63 7 8 6
162 -15 209 -29z"/>
</g>
</svg>
